<mxfile host="app.diagrams.net" modified="2023-05-05T10:15:34.259Z" agent="Mozilla/5.0 (Windows NT 10.0; Win64; x64) AppleWebKit/537.36 (KHTML, like Gecko) Chrome/113.0.0.0 Safari/537.36" etag="ZShsfM1OPw1HxH_y10Nm" version="21.2.9" type="device">
  <diagram name="Page-1" id="1J1NQNj4FVKn4LCwfoBr">
    <mxGraphModel dx="2580" dy="1146" grid="1" gridSize="15" guides="1" tooltips="1" connect="1" arrows="1" fold="1" page="0" pageScale="1" pageWidth="827" pageHeight="1169" background="none" math="0" shadow="0">
      <root>
        <mxCell id="0" />
        <mxCell id="1" parent="0" />
        <mxCell id="LQ6hvWQyoT47dH9XxiZh-16" style="edgeStyle=orthogonalEdgeStyle;rounded=0;orthogonalLoop=1;jettySize=auto;html=1;exitX=0.5;exitY=1;exitDx=0;exitDy=0;entryX=0.5;entryY=0;entryDx=0;entryDy=0;" edge="1" parent="1" source="LQ6hvWQyoT47dH9XxiZh-3" target="LQ6hvWQyoT47dH9XxiZh-9">
          <mxGeometry relative="1" as="geometry" />
        </mxCell>
        <mxCell id="LQ6hvWQyoT47dH9XxiZh-3" value="&lt;h2&gt;YOLO&lt;/h2&gt;" style="rounded=0;whiteSpace=wrap;html=1;fillColor=#ffe6cc;strokeColor=#d79b00;" vertex="1" parent="1">
          <mxGeometry x="234" y="195" width="120" height="60" as="geometry" />
        </mxCell>
        <mxCell id="LQ6hvWQyoT47dH9XxiZh-17" style="edgeStyle=orthogonalEdgeStyle;rounded=0;orthogonalLoop=1;jettySize=auto;html=1;exitX=0.5;exitY=1;exitDx=0;exitDy=0;entryX=0.5;entryY=0;entryDx=0;entryDy=0;" edge="1" parent="1" source="LQ6hvWQyoT47dH9XxiZh-4" target="LQ6hvWQyoT47dH9XxiZh-11">
          <mxGeometry relative="1" as="geometry" />
        </mxCell>
        <mxCell id="LQ6hvWQyoT47dH9XxiZh-4" value="&lt;h2&gt;Resnet-Places365&lt;/h2&gt;" style="rounded=0;whiteSpace=wrap;html=1;fillColor=#ffe6cc;strokeColor=#d79b00;" vertex="1" parent="1">
          <mxGeometry x="474" y="195" width="120" height="60" as="geometry" />
        </mxCell>
        <mxCell id="LQ6hvWQyoT47dH9XxiZh-6" value="" style="endArrow=classic;html=1;rounded=0;exitX=0.5;exitY=1;exitDx=0;exitDy=0;entryX=0.5;entryY=0;entryDx=0;entryDy=0;jumpSize=7;" edge="1" parent="1" source="LQ6hvWQyoT47dH9XxiZh-64" target="LQ6hvWQyoT47dH9XxiZh-3">
          <mxGeometry width="50" height="50" relative="1" as="geometry">
            <mxPoint x="414" y="120" as="sourcePoint" />
            <mxPoint x="285" y="105" as="targetPoint" />
          </mxGeometry>
        </mxCell>
        <mxCell id="LQ6hvWQyoT47dH9XxiZh-7" value="" style="endArrow=classic;html=1;rounded=0;exitX=0.5;exitY=1;exitDx=0;exitDy=0;entryX=0.5;entryY=0;entryDx=0;entryDy=0;" edge="1" parent="1" source="LQ6hvWQyoT47dH9XxiZh-64" target="LQ6hvWQyoT47dH9XxiZh-4">
          <mxGeometry width="50" height="50" relative="1" as="geometry">
            <mxPoint x="414" y="120" as="sourcePoint" />
            <mxPoint x="534" y="150" as="targetPoint" />
          </mxGeometry>
        </mxCell>
        <mxCell id="LQ6hvWQyoT47dH9XxiZh-18" style="rounded=0;orthogonalLoop=1;jettySize=auto;html=1;exitX=0.5;exitY=1;exitDx=0;exitDy=0;entryX=0.5;entryY=0;entryDx=0;entryDy=0;" edge="1" parent="1" source="LQ6hvWQyoT47dH9XxiZh-9" target="LQ6hvWQyoT47dH9XxiZh-13">
          <mxGeometry relative="1" as="geometry" />
        </mxCell>
        <mxCell id="LQ6hvWQyoT47dH9XxiZh-19" style="edgeStyle=none;shape=connector;rounded=0;orthogonalLoop=1;jettySize=auto;html=1;exitX=0.5;exitY=1;exitDx=0;exitDy=0;entryX=0.5;entryY=0;entryDx=0;entryDy=0;labelBackgroundColor=default;strokeColor=default;fontFamily=Helvetica;fontSize=11;fontColor=default;endArrow=classic;" edge="1" parent="1" source="LQ6hvWQyoT47dH9XxiZh-9" target="LQ6hvWQyoT47dH9XxiZh-12">
          <mxGeometry relative="1" as="geometry" />
        </mxCell>
        <mxCell id="LQ6hvWQyoT47dH9XxiZh-9" value="Object" style="rounded=0;whiteSpace=wrap;html=1;fillColor=#e1d5e7;strokeColor=#9673a6;" vertex="1" parent="1">
          <mxGeometry x="234" y="330" width="120" height="60" as="geometry" />
        </mxCell>
        <mxCell id="LQ6hvWQyoT47dH9XxiZh-22" style="edgeStyle=orthogonalEdgeStyle;shape=connector;rounded=0;orthogonalLoop=1;jettySize=auto;html=1;exitX=0.5;exitY=1;exitDx=0;exitDy=0;entryX=0.75;entryY=0;entryDx=0;entryDy=0;labelBackgroundColor=default;strokeColor=default;fontFamily=Helvetica;fontSize=11;fontColor=default;endArrow=classic;" edge="1" parent="1" source="LQ6hvWQyoT47dH9XxiZh-11" target="LQ6hvWQyoT47dH9XxiZh-14">
          <mxGeometry relative="1" as="geometry">
            <Array as="points">
              <mxPoint x="534" y="555" />
              <mxPoint x="444" y="555" />
            </Array>
          </mxGeometry>
        </mxCell>
        <mxCell id="LQ6hvWQyoT47dH9XxiZh-11" value="Scene" style="rounded=0;whiteSpace=wrap;html=1;fillColor=#b0e3e6;strokeColor=#0e8088;" vertex="1" parent="1">
          <mxGeometry x="474" y="330" width="120" height="60" as="geometry" />
        </mxCell>
        <mxCell id="LQ6hvWQyoT47dH9XxiZh-21" style="edgeStyle=orthogonalEdgeStyle;shape=connector;rounded=0;orthogonalLoop=1;jettySize=auto;html=1;exitX=0.5;exitY=1;exitDx=0;exitDy=0;labelBackgroundColor=default;strokeColor=default;fontFamily=Helvetica;fontSize=11;fontColor=default;endArrow=classic;entryX=0.5;entryY=0;entryDx=0;entryDy=0;" edge="1" parent="1" source="LQ6hvWQyoT47dH9XxiZh-12" target="LQ6hvWQyoT47dH9XxiZh-14">
          <mxGeometry relative="1" as="geometry">
            <mxPoint x="405" y="570" as="targetPoint" />
          </mxGeometry>
        </mxCell>
        <mxCell id="LQ6hvWQyoT47dH9XxiZh-12" value="Color" style="rounded=0;whiteSpace=wrap;html=1;fillColor=#b0e3e6;strokeColor=#0e8088;" vertex="1" parent="1">
          <mxGeometry x="330" y="465" width="120" height="60" as="geometry" />
        </mxCell>
        <mxCell id="LQ6hvWQyoT47dH9XxiZh-20" style="edgeStyle=orthogonalEdgeStyle;shape=connector;rounded=0;orthogonalLoop=1;jettySize=auto;html=1;exitX=0.5;exitY=1;exitDx=0;exitDy=0;entryX=0.25;entryY=0;entryDx=0;entryDy=0;labelBackgroundColor=default;strokeColor=default;fontFamily=Helvetica;fontSize=11;fontColor=default;endArrow=classic;" edge="1" parent="1" source="LQ6hvWQyoT47dH9XxiZh-13" target="LQ6hvWQyoT47dH9XxiZh-14">
          <mxGeometry relative="1" as="geometry" />
        </mxCell>
        <mxCell id="LQ6hvWQyoT47dH9XxiZh-13" value="Bounding Box" style="rounded=0;whiteSpace=wrap;html=1;fillColor=#b0e3e6;strokeColor=#0e8088;" vertex="1" parent="1">
          <mxGeometry x="150" y="465" width="120" height="60" as="geometry" />
        </mxCell>
        <mxCell id="LQ6hvWQyoT47dH9XxiZh-27" style="edgeStyle=none;shape=connector;rounded=0;orthogonalLoop=1;jettySize=auto;html=1;exitX=0.5;exitY=1;exitDx=0;exitDy=0;entryX=0.5;entryY=0;entryDx=0;entryDy=0;labelBackgroundColor=default;strokeColor=default;fontFamily=Helvetica;fontSize=11;fontColor=default;endArrow=classic;" edge="1" parent="1" source="LQ6hvWQyoT47dH9XxiZh-14" target="LQ6hvWQyoT47dH9XxiZh-24">
          <mxGeometry relative="1" as="geometry" />
        </mxCell>
        <mxCell id="LQ6hvWQyoT47dH9XxiZh-14" value="X Text&lt;br&gt;Text representation of image" style="rounded=0;whiteSpace=wrap;html=1;fillColor=#d5e8d4;strokeColor=#82b366;" vertex="1" parent="1">
          <mxGeometry x="354" y="600" width="120" height="60" as="geometry" />
        </mxCell>
        <mxCell id="LQ6hvWQyoT47dH9XxiZh-25" value="Input Word" style="text;html=1;align=center;verticalAlign=middle;resizable=0;points=[];autosize=1;strokeColor=none;fillColor=none;fontSize=11;fontFamily=Helvetica;fontColor=default;rounded=0;glass=0;" vertex="1" parent="1">
          <mxGeometry x="405" y="690" width="90" height="30" as="geometry" />
        </mxCell>
        <mxCell id="LQ6hvWQyoT47dH9XxiZh-57" style="edgeStyle=none;shape=connector;rounded=0;orthogonalLoop=1;jettySize=auto;html=1;exitX=0.5;exitY=1;exitDx=0;exitDy=0;entryX=0.5;entryY=0;entryDx=0;entryDy=0;labelBackgroundColor=default;strokeColor=default;fontFamily=Helvetica;fontSize=11;fontColor=default;endArrow=classic;" edge="1" parent="1" source="LQ6hvWQyoT47dH9XxiZh-50" target="LQ6hvWQyoT47dH9XxiZh-56">
          <mxGeometry relative="1" as="geometry" />
        </mxCell>
        <mxCell id="LQ6hvWQyoT47dH9XxiZh-59" style="edgeStyle=none;shape=connector;rounded=0;orthogonalLoop=1;jettySize=auto;html=1;exitX=0.5;exitY=1;exitDx=0;exitDy=0;entryX=0.5;entryY=0;entryDx=0;entryDy=0;labelBackgroundColor=default;strokeColor=default;fontFamily=Helvetica;fontSize=11;fontColor=default;endArrow=classic;" edge="1" parent="1" source="LQ6hvWQyoT47dH9XxiZh-56" target="LQ6hvWQyoT47dH9XxiZh-58">
          <mxGeometry relative="1" as="geometry" />
        </mxCell>
        <mxCell id="LQ6hvWQyoT47dH9XxiZh-56" value="&lt;h2&gt;Linear&lt;/h2&gt;" style="rounded=0;whiteSpace=wrap;html=1;fontFamily=Helvetica;fontSize=11;fillColor=#fff2cc;strokeColor=#d6b656;" vertex="1" parent="1">
          <mxGeometry x="354" y="1515" width="120" height="60" as="geometry" />
        </mxCell>
        <mxCell id="LQ6hvWQyoT47dH9XxiZh-62" style="edgeStyle=none;shape=connector;rounded=0;orthogonalLoop=1;jettySize=auto;html=1;exitX=0.5;exitY=1;exitDx=0;exitDy=0;entryX=0.5;entryY=0;entryDx=0;entryDy=0;labelBackgroundColor=default;strokeColor=default;fontFamily=Helvetica;fontSize=11;fontColor=default;endArrow=classic;" edge="1" parent="1" source="LQ6hvWQyoT47dH9XxiZh-58" target="LQ6hvWQyoT47dH9XxiZh-61">
          <mxGeometry relative="1" as="geometry" />
        </mxCell>
        <mxCell id="LQ6hvWQyoT47dH9XxiZh-58" value="&lt;h2&gt;Log SoftMax&lt;/h2&gt;" style="rounded=0;whiteSpace=wrap;html=1;fontFamily=Helvetica;fontSize=11;fillColor=#fff2cc;strokeColor=#d6b656;" vertex="1" parent="1">
          <mxGeometry x="354" y="1620" width="120" height="60" as="geometry" />
        </mxCell>
        <mxCell id="LQ6hvWQyoT47dH9XxiZh-61" value="&lt;h1 style=&quot;border-color: var(--border-color);&quot;&gt;WORD&lt;/h1&gt;" style="rounded=1;whiteSpace=wrap;html=1;fontFamily=Helvetica;fontSize=11;fillColor=#dae8fc;strokeColor=#6c8ebf;" vertex="1" parent="1">
          <mxGeometry x="354" y="1725" width="120" height="60" as="geometry" />
        </mxCell>
        <mxCell id="LQ6hvWQyoT47dH9XxiZh-64" value="&lt;h1&gt;IMAGE&lt;/h1&gt;" style="rounded=1;whiteSpace=wrap;html=1;fontFamily=Helvetica;fontSize=11;fillColor=#dae8fc;strokeColor=#6c8ebf;" vertex="1" parent="1">
          <mxGeometry x="354" y="60" width="120" height="60" as="geometry" />
        </mxCell>
        <mxCell id="LQ6hvWQyoT47dH9XxiZh-73" value="" style="group" vertex="1" connectable="0" parent="1">
          <mxGeometry x="90" y="735" width="525" height="735" as="geometry" />
        </mxCell>
        <mxCell id="LQ6hvWQyoT47dH9XxiZh-24" value="Encoder Input" style="rounded=0;whiteSpace=wrap;html=1;fontFamily=Helvetica;fontSize=11;fontColor=default;" vertex="1" parent="LQ6hvWQyoT47dH9XxiZh-73">
          <mxGeometry x="264" width="120" height="60" as="geometry" />
        </mxCell>
        <mxCell id="LQ6hvWQyoT47dH9XxiZh-29" value="&lt;h2&gt;ENCODER&lt;/h2&gt;&lt;h2&gt;GRU&lt;/h2&gt;" style="rounded=0;whiteSpace=wrap;html=1;fontFamily=Helvetica;fontSize=11;fillColor=#ffe6cc;strokeColor=#d79b00;" vertex="1" parent="LQ6hvWQyoT47dH9XxiZh-73">
          <mxGeometry x="330" y="135" width="120" height="60" as="geometry" />
        </mxCell>
        <mxCell id="LQ6hvWQyoT47dH9XxiZh-28" style="edgeStyle=orthogonalEdgeStyle;shape=connector;rounded=0;orthogonalLoop=1;jettySize=auto;html=1;exitX=0.5;exitY=1;exitDx=0;exitDy=0;labelBackgroundColor=default;strokeColor=default;fontFamily=Helvetica;fontSize=11;fontColor=default;endArrow=classic;entryX=0.25;entryY=0;entryDx=0;entryDy=0;" edge="1" parent="LQ6hvWQyoT47dH9XxiZh-73" source="LQ6hvWQyoT47dH9XxiZh-24" target="LQ6hvWQyoT47dH9XxiZh-29">
          <mxGeometry relative="1" as="geometry">
            <mxPoint x="324" y="135" as="targetPoint" />
          </mxGeometry>
        </mxCell>
        <mxCell id="LQ6hvWQyoT47dH9XxiZh-31" style="shape=connector;rounded=0;orthogonalLoop=1;jettySize=auto;html=1;exitX=0.5;exitY=1;exitDx=0;exitDy=0;entryX=0.75;entryY=0;entryDx=0;entryDy=0;labelBackgroundColor=default;strokeColor=default;fontFamily=Helvetica;fontSize=11;fontColor=default;endArrow=classic;edgeStyle=orthogonalEdgeStyle;" edge="1" parent="LQ6hvWQyoT47dH9XxiZh-73" source="LQ6hvWQyoT47dH9XxiZh-30" target="LQ6hvWQyoT47dH9XxiZh-29">
          <mxGeometry relative="1" as="geometry" />
        </mxCell>
        <mxCell id="LQ6hvWQyoT47dH9XxiZh-30" value="Encoder Hidden" style="rounded=0;whiteSpace=wrap;html=1;fontFamily=Helvetica;fontSize=11;fontColor=default;" vertex="1" parent="LQ6hvWQyoT47dH9XxiZh-73">
          <mxGeometry x="405" width="120" height="60" as="geometry" />
        </mxCell>
        <mxCell id="LQ6hvWQyoT47dH9XxiZh-34" style="edgeStyle=orthogonalEdgeStyle;shape=connector;rounded=0;orthogonalLoop=1;jettySize=auto;html=1;labelBackgroundColor=default;strokeColor=default;fontFamily=Helvetica;fontSize=11;fontColor=default;endArrow=classic;entryX=0;entryY=0.5;entryDx=0;entryDy=0;exitX=0;exitY=0.5;exitDx=0;exitDy=0;" edge="1" parent="LQ6hvWQyoT47dH9XxiZh-73" source="LQ6hvWQyoT47dH9XxiZh-32" target="LQ6hvWQyoT47dH9XxiZh-24">
          <mxGeometry relative="1" as="geometry">
            <mxPoint x="204" y="45" as="targetPoint" />
            <mxPoint x="324" y="270" as="sourcePoint" />
          </mxGeometry>
        </mxCell>
        <mxCell id="LQ6hvWQyoT47dH9XxiZh-32" value="Encoder Output" style="rounded=0;whiteSpace=wrap;html=1;fontFamily=Helvetica;fontSize=11;fillColor=#f5f5f5;strokeColor=#666666;fontColor=#333333;" vertex="1" parent="LQ6hvWQyoT47dH9XxiZh-73">
          <mxGeometry x="264" y="270" width="120" height="60" as="geometry" />
        </mxCell>
        <mxCell id="LQ6hvWQyoT47dH9XxiZh-33" style="shape=connector;rounded=0;orthogonalLoop=1;jettySize=auto;html=1;exitX=0.25;exitY=1;exitDx=0;exitDy=0;entryX=0.5;entryY=0;entryDx=0;entryDy=0;labelBackgroundColor=default;strokeColor=default;fontFamily=Helvetica;fontSize=11;fontColor=default;endArrow=classic;edgeStyle=orthogonalEdgeStyle;" edge="1" parent="LQ6hvWQyoT47dH9XxiZh-73" source="LQ6hvWQyoT47dH9XxiZh-29" target="LQ6hvWQyoT47dH9XxiZh-32">
          <mxGeometry relative="1" as="geometry" />
        </mxCell>
        <mxCell id="LQ6hvWQyoT47dH9XxiZh-40" style="edgeStyle=orthogonalEdgeStyle;shape=connector;rounded=0;orthogonalLoop=1;jettySize=auto;html=1;exitX=1;exitY=0.5;exitDx=0;exitDy=0;entryX=1;entryY=0.5;entryDx=0;entryDy=0;labelBackgroundColor=default;strokeColor=default;fontFamily=Helvetica;fontSize=11;fontColor=default;endArrow=classic;" edge="1" parent="LQ6hvWQyoT47dH9XxiZh-73" source="LQ6hvWQyoT47dH9XxiZh-38" target="LQ6hvWQyoT47dH9XxiZh-30">
          <mxGeometry relative="1" as="geometry" />
        </mxCell>
        <mxCell id="LQ6hvWQyoT47dH9XxiZh-38" value="Encoder Hidden" style="rounded=0;whiteSpace=wrap;html=1;fontFamily=Helvetica;fontSize=11;fillColor=#f5f5f5;strokeColor=#666666;fontColor=#333333;" vertex="1" parent="LQ6hvWQyoT47dH9XxiZh-73">
          <mxGeometry x="405" y="270" width="120" height="60" as="geometry" />
        </mxCell>
        <mxCell id="LQ6hvWQyoT47dH9XxiZh-39" style="shape=connector;rounded=0;orthogonalLoop=1;jettySize=auto;html=1;entryX=0.5;entryY=0;entryDx=0;entryDy=0;labelBackgroundColor=default;strokeColor=default;fontFamily=Helvetica;fontSize=11;fontColor=default;endArrow=classic;exitX=0.75;exitY=1;exitDx=0;exitDy=0;edgeStyle=orthogonalEdgeStyle;" edge="1" parent="LQ6hvWQyoT47dH9XxiZh-73" source="LQ6hvWQyoT47dH9XxiZh-29" target="LQ6hvWQyoT47dH9XxiZh-38">
          <mxGeometry relative="1" as="geometry">
            <mxPoint x="420" y="195" as="sourcePoint" />
          </mxGeometry>
        </mxCell>
        <mxCell id="LQ6hvWQyoT47dH9XxiZh-41" value="Decoder Hidden" style="rounded=0;whiteSpace=wrap;html=1;fontFamily=Helvetica;fontSize=11;fontColor=#333333;fillColor=#f5f5f5;strokeColor=#666666;" vertex="1" parent="LQ6hvWQyoT47dH9XxiZh-73">
          <mxGeometry x="405" y="405" width="120" height="60" as="geometry" />
        </mxCell>
        <mxCell id="LQ6hvWQyoT47dH9XxiZh-42" style="edgeStyle=none;shape=connector;rounded=0;orthogonalLoop=1;jettySize=auto;html=1;exitX=0.5;exitY=1;exitDx=0;exitDy=0;entryX=0.5;entryY=0;entryDx=0;entryDy=0;labelBackgroundColor=default;strokeColor=default;fontFamily=Helvetica;fontSize=11;fontColor=default;endArrow=classic;" edge="1" parent="LQ6hvWQyoT47dH9XxiZh-73" source="LQ6hvWQyoT47dH9XxiZh-38" target="LQ6hvWQyoT47dH9XxiZh-41">
          <mxGeometry relative="1" as="geometry" />
        </mxCell>
        <mxCell id="LQ6hvWQyoT47dH9XxiZh-44" value="Decoder Input" style="rounded=0;whiteSpace=wrap;html=1;fontFamily=Helvetica;fontSize=11;fontColor=#333333;fillColor=#f5f5f5;strokeColor=#666666;" vertex="1" parent="LQ6hvWQyoT47dH9XxiZh-73">
          <mxGeometry x="264" y="405" width="120" height="60" as="geometry" />
        </mxCell>
        <mxCell id="LQ6hvWQyoT47dH9XxiZh-46" value="&lt;h2&gt;DECODER&lt;/h2&gt;&lt;h2&gt;GRU&lt;/h2&gt;" style="rounded=0;whiteSpace=wrap;html=1;fontFamily=Helvetica;fontSize=11;fillColor=#ffe6cc;strokeColor=#d79b00;" vertex="1" parent="LQ6hvWQyoT47dH9XxiZh-73">
          <mxGeometry x="330" y="540" width="120" height="60" as="geometry" />
        </mxCell>
        <mxCell id="LQ6hvWQyoT47dH9XxiZh-48" style="edgeStyle=orthogonalEdgeStyle;shape=connector;rounded=0;orthogonalLoop=1;jettySize=auto;html=1;exitX=0.5;exitY=1;exitDx=0;exitDy=0;entryX=0.75;entryY=0;entryDx=0;entryDy=0;labelBackgroundColor=default;strokeColor=default;fontFamily=Helvetica;fontSize=11;fontColor=default;endArrow=classic;" edge="1" parent="LQ6hvWQyoT47dH9XxiZh-73" source="LQ6hvWQyoT47dH9XxiZh-41" target="LQ6hvWQyoT47dH9XxiZh-46">
          <mxGeometry relative="1" as="geometry" />
        </mxCell>
        <mxCell id="LQ6hvWQyoT47dH9XxiZh-47" style="edgeStyle=orthogonalEdgeStyle;shape=connector;rounded=0;orthogonalLoop=1;jettySize=auto;html=1;exitX=0.5;exitY=1;exitDx=0;exitDy=0;entryX=0.25;entryY=0;entryDx=0;entryDy=0;labelBackgroundColor=default;strokeColor=default;fontFamily=Helvetica;fontSize=11;fontColor=default;endArrow=classic;" edge="1" parent="LQ6hvWQyoT47dH9XxiZh-73" source="LQ6hvWQyoT47dH9XxiZh-44" target="LQ6hvWQyoT47dH9XxiZh-46">
          <mxGeometry relative="1" as="geometry" />
        </mxCell>
        <mxCell id="LQ6hvWQyoT47dH9XxiZh-55" style="edgeStyle=orthogonalEdgeStyle;shape=connector;rounded=0;orthogonalLoop=1;jettySize=auto;html=1;exitX=1;exitY=0.5;exitDx=0;exitDy=0;entryX=1;entryY=0.5;entryDx=0;entryDy=0;labelBackgroundColor=default;strokeColor=default;fontFamily=Helvetica;fontSize=11;fontColor=default;endArrow=classic;" edge="1" parent="LQ6hvWQyoT47dH9XxiZh-73" source="LQ6hvWQyoT47dH9XxiZh-49" target="LQ6hvWQyoT47dH9XxiZh-41">
          <mxGeometry relative="1" as="geometry" />
        </mxCell>
        <mxCell id="LQ6hvWQyoT47dH9XxiZh-49" value="Decoder Hidden" style="rounded=0;whiteSpace=wrap;html=1;fontFamily=Helvetica;fontSize=11;fontColor=#333333;fillColor=#f5f5f5;strokeColor=#666666;" vertex="1" parent="LQ6hvWQyoT47dH9XxiZh-73">
          <mxGeometry x="405" y="675" width="120" height="60" as="geometry" />
        </mxCell>
        <mxCell id="LQ6hvWQyoT47dH9XxiZh-71" style="edgeStyle=orthogonalEdgeStyle;shape=connector;rounded=0;orthogonalLoop=1;jettySize=auto;html=1;exitX=0.75;exitY=1;exitDx=0;exitDy=0;entryX=0.5;entryY=0;entryDx=0;entryDy=0;labelBackgroundColor=default;strokeColor=default;fontFamily=Helvetica;fontSize=11;fontColor=default;endArrow=classic;" edge="1" parent="LQ6hvWQyoT47dH9XxiZh-73" source="LQ6hvWQyoT47dH9XxiZh-46" target="LQ6hvWQyoT47dH9XxiZh-49">
          <mxGeometry relative="1" as="geometry" />
        </mxCell>
        <mxCell id="LQ6hvWQyoT47dH9XxiZh-50" value="Decoder Output" style="rounded=0;whiteSpace=wrap;html=1;fontFamily=Helvetica;fontSize=11;fontColor=#333333;fillColor=#f5f5f5;strokeColor=#666666;" vertex="1" parent="LQ6hvWQyoT47dH9XxiZh-73">
          <mxGeometry x="264" y="675" width="120" height="60" as="geometry" />
        </mxCell>
        <mxCell id="LQ6hvWQyoT47dH9XxiZh-53" style="edgeStyle=orthogonalEdgeStyle;shape=connector;rounded=0;orthogonalLoop=1;jettySize=auto;html=1;exitX=0.25;exitY=1;exitDx=0;exitDy=0;entryX=0.5;entryY=0;entryDx=0;entryDy=0;labelBackgroundColor=default;strokeColor=default;fontFamily=Helvetica;fontSize=11;fontColor=default;endArrow=classic;" edge="1" parent="LQ6hvWQyoT47dH9XxiZh-73" source="LQ6hvWQyoT47dH9XxiZh-46" target="LQ6hvWQyoT47dH9XxiZh-50">
          <mxGeometry relative="1" as="geometry">
            <Array as="points">
              <mxPoint x="360" y="638" />
              <mxPoint x="324" y="638" />
            </Array>
          </mxGeometry>
        </mxCell>
        <mxCell id="LQ6hvWQyoT47dH9XxiZh-66" value="Encoder Input" style="rounded=0;whiteSpace=wrap;html=1;fontFamily=Helvetica;fontSize=11;fillColor=#f5f5f5;strokeColor=#666666;fontColor=#333333;" vertex="1" parent="LQ6hvWQyoT47dH9XxiZh-73">
          <mxGeometry x="264" width="120" height="60" as="geometry" />
        </mxCell>
        <mxCell id="LQ6hvWQyoT47dH9XxiZh-67" value="Encoder Hidden" style="rounded=0;whiteSpace=wrap;html=1;fontFamily=Helvetica;fontSize=11;fillColor=#f5f5f5;strokeColor=#666666;fontColor=#333333;" vertex="1" parent="LQ6hvWQyoT47dH9XxiZh-73">
          <mxGeometry x="405" width="120" height="60" as="geometry" />
        </mxCell>
        <mxCell id="LQ6hvWQyoT47dH9XxiZh-68" value="&lt;h1&gt;True Caption&lt;/h1&gt;" style="rounded=0;whiteSpace=wrap;html=1;fontFamily=Helvetica;fontSize=11;fontColor=default;fillColor=#dae8fc;strokeColor=#6c8ebf;" vertex="1" parent="LQ6hvWQyoT47dH9XxiZh-73">
          <mxGeometry y="405" width="120" height="60" as="geometry" />
        </mxCell>
        <mxCell id="LQ6hvWQyoT47dH9XxiZh-45" style="edgeStyle=none;shape=connector;rounded=0;orthogonalLoop=1;jettySize=auto;html=1;exitX=1;exitY=0.5;exitDx=0;exitDy=0;entryX=0;entryY=0.5;entryDx=0;entryDy=0;labelBackgroundColor=default;strokeColor=default;fontFamily=Helvetica;fontSize=11;fontColor=default;endArrow=classic;" edge="1" parent="LQ6hvWQyoT47dH9XxiZh-73" source="LQ6hvWQyoT47dH9XxiZh-68" target="LQ6hvWQyoT47dH9XxiZh-44">
          <mxGeometry relative="1" as="geometry">
            <mxPoint x="120" y="435" as="sourcePoint" />
          </mxGeometry>
        </mxCell>
        <mxCell id="LQ6hvWQyoT47dH9XxiZh-69" value="&lt;font style=&quot;font-size: 16px;&quot;&gt;Teacher&lt;br&gt;Forcing&lt;/font&gt;" style="text;html=1;strokeColor=none;fillColor=none;align=center;verticalAlign=middle;whiteSpace=wrap;rounded=0;fontSize=11;fontFamily=Helvetica;fontColor=default;" vertex="1" parent="LQ6hvWQyoT47dH9XxiZh-73">
          <mxGeometry x="144" y="405" width="90" height="60" as="geometry" />
        </mxCell>
      </root>
    </mxGraphModel>
  </diagram>
</mxfile>
